# xmcd
#
# Track frame offsets:
#	150
#	17179
#	35425
#	49648
#	67112
#	83280
#	99584
#	116751
#	132688
#	151463
#
# Disc length: 2200 seconds
#
# Revision: 1
# Processed by: cddbd v1.5.1PL2 Copyright (c) Steve Scherf et al.
# Submitted via: audiograbber 1.83.01
#
DISCID=8208960a
DTITLE=MAJA TATIC - Lagali su me
DYEAR=2004
DGENRE=Pop
TTITLE0=Lagali su me
TTITLE1=Zadnja rijec na usnama 
TTITLE2=Pocetak i kraj
TTITLE3=Jos te osjecam
TTITLE4=Sto te nema
TTITLE5=Poslednja linija odbrane
TTITLE6=1 na 1
TTITLE7=Za malo njeznosti
TTITLE8=Adagio
TTITLE9=Na jastuku za dvoje
EXTD=
EXTT0=
EXTT1=
EXTT2=
EXTT3=
EXTT4=
EXTT5=
EXTT6=
EXTT7=
EXTT8=
EXTT9=
PLAYORDER=
